REM DIRINDEX 1\2,1\3,1\4
REM DIRNAME cjc105,folder01,folder02,folder03
TITLE ""
FILE "DISC1Track09.mp3" MP3
  TRACK 01 AUDIO
    TITLE "0:"
    INDEX 01 00:00:00
  TRACK 02 AUDIO
    TITLE "4:cjc105_0618"
    INDEX 01 00:00:11
  TRACK 03 AUDIO
    TITLE "0:"
    INDEX 01 00:07:37
  TRACK 04 AUDIO
    TITLE "2:cjc105_0619"
    INDEX 01 00:08:05
  TRACK 05 AUDIO
    TITLE "2:cjc105_0620"
    INDEX 01 00:11:25
  TRACK 06 AUDIO
    TITLE "2:cjc105_0621"
    INDEX 01 00:14:39
  TRACK 07 AUDIO
    TITLE "2:cjc105_0622"
    INDEX 01 00:17:72
  TRACK 08 AUDIO
    TITLE "2:cjc105_0623"
    INDEX 01 00:21:41
  TRACK 09 AUDIO
    TITLE "2:cjc105_0624"
    INDEX 01 00:24:67
  TRACK 10 AUDIO
    TITLE "2:cjc105_0625"
    INDEX 01 00:28:41
  TRACK 11 AUDIO
    TITLE "2:cjc105_0626"
    INDEX 01 00:32:19
  TRACK 12 AUDIO
    TITLE "2:cjc105_0627"
    INDEX 01 00:36:01
  TRACK 13 AUDIO
    TITLE "2:cjc105_0628"
    INDEX 01 00:39:35
  TRACK 14 AUDIO
    TITLE "2:cjc105_0629"
    INDEX 01 00:43:17
  TRACK 15 AUDIO
    TITLE "2:cjc105_0630"
    INDEX 01 00:47:25
  TRACK 16 AUDIO
    TITLE "2:cjc105_0631"
    INDEX 01 00:50:56
  TRACK 17 AUDIO
    TITLE "2:cjc105_0632"
    INDEX 01 00:53:68
  TRACK 18 AUDIO
    TITLE "2:cjc105_0633"
    INDEX 01 00:57:13
  TRACK 19 AUDIO
    TITLE "2:cjc105_0634"
    INDEX 01 01:00:21
  TRACK 20 AUDIO
    TITLE "2:cjc105_0635"
    INDEX 01 01:03:24
  TRACK 21 AUDIO
    TITLE "2:cjc105_0636"
    INDEX 01 01:08:46
  TRACK 22 AUDIO
    TITLE "2:cjc105_0637"
    INDEX 01 01:12:07
  TRACK 23 AUDIO
    TITLE "2:cjc105_0638"
    INDEX 01 01:15:66
  TRACK 24 AUDIO
    TITLE "2:cjc105_0639"
    INDEX 01 01:19:05
  TRACK 25 AUDIO
    TITLE "2:cjc105_0640"
    INDEX 01 01:22:42
  TRACK 26 AUDIO
    TITLE "2:cjc105_0641"
    INDEX 01 01:26:09
  TRACK 27 AUDIO
    TITLE "2:cjc105_0642"
    INDEX 01 01:29:31
  TRACK 28 AUDIO
    TITLE "2:cjc105_0643"
    INDEX 01 01:32:60
  TRACK 29 AUDIO
    TITLE "2:cjc105_0644"
    INDEX 01 01:35:69
  TRACK 30 AUDIO
    TITLE "2:cjc105_0645"
    INDEX 01 01:39:08
  TRACK 31 AUDIO
    TITLE "2:cjc105_0646"
    INDEX 01 01:42:51
  TRACK 32 AUDIO
    TITLE "2:cjc105_0647"
    INDEX 01 01:45:40
  TRACK 33 AUDIO
    TITLE "2:cjc105_0648"
    INDEX 01 01:48:42
  TRACK 34 AUDIO
    TITLE "2:cjc105_0649"
    INDEX 01 01:51:72
  TRACK 35 AUDIO
    TITLE "2:cjc105_0650"
    INDEX 01 01:55:24
  TRACK 36 AUDIO
    TITLE "2:cjc105_0651"
    INDEX 01 01:59:22
  TRACK 37 AUDIO
    TITLE "2:cjc105_0652"
    INDEX 01 02:03:39
  TRACK 38 AUDIO
    TITLE "2:cjc105_0653"
    INDEX 01 02:07:20
  TRACK 39 AUDIO
    TITLE "2:cjc105_0654"
    INDEX 01 02:11:08
  TRACK 40 AUDIO
    TITLE "2:cjc105_0655"
    INDEX 01 02:14:53
  TRACK 41 AUDIO
    TITLE "2:cjc105_0656"
    INDEX 01 02:18:33
  TRACK 42 AUDIO
    TITLE "2:cjc105_0657"
    INDEX 01 02:21:47
  TRACK 43 AUDIO
    TITLE "2:cjc105_0658"
    INDEX 01 02:24:65
  TRACK 44 AUDIO
    TITLE "2:cjc105_0659"
    INDEX 01 02:28:57
  TRACK 45 AUDIO
    TITLE "2:cjc105_0660"
    INDEX 01 02:32:53
  TRACK 46 AUDIO
    TITLE "2:cjc105_0661"
    INDEX 01 02:36:12
  TRACK 47 AUDIO
    TITLE "2:cjc105_0662"
    INDEX 01 02:39:55
  TRACK 48 AUDIO
    TITLE "2:cjc105_0663"
    INDEX 01 02:43:53
  TRACK 49 AUDIO
    TITLE "2:cjc105_0664"
    INDEX 01 02:47:39
  TRACK 50 AUDIO
    TITLE "2:cjc105_0665"
    INDEX 01 02:50:72
  TRACK 51 AUDIO
    TITLE "2:cjc105_0666"
    INDEX 01 02:53:67
  TRACK 52 AUDIO
    TITLE "2:cjc105_0667"
    INDEX 01 02:57:43
  TRACK 53 AUDIO
    TITLE "2:cjc105_0668"
    INDEX 01 03:01:04
  TRACK 54 AUDIO
    TITLE "2:cjc105_0669"
    INDEX 01 03:04:35
  TRACK 55 AUDIO
    TITLE "2:cjc105_0670"
    INDEX 01 03:07:67
  TRACK 56 AUDIO
    TITLE "2:cjc105_0671"
    INDEX 01 03:12:37
  TRACK 57 AUDIO
    TITLE "2:cjc105_0672"
    INDEX 01 03:17:16
  TRACK 58 AUDIO
    TITLE "2:cjc105_0673"
    INDEX 01 03:20:60
  TRACK 59 AUDIO
    TITLE "2:cjc105_0674"
    INDEX 01 03:24:16
  TRACK 60 AUDIO
    TITLE "2:cjc105_0675"
    INDEX 01 03:27:64
  TRACK 61 AUDIO
    TITLE "2:cjc105_0676"
    INDEX 01 03:30:52
  TRACK 62 AUDIO
    TITLE "2:cjc105_0677"
    INDEX 01 03:33:68
  TRACK 63 AUDIO
    TITLE "2:cjc105_0678"
    INDEX 01 03:37:19
  TRACK 64 AUDIO
    TITLE "2:cjc105_0679"
    INDEX 01 03:40:29
  TRACK 65 AUDIO
    TITLE "2:cjc105_0680"
    INDEX 01 03:44:07
  TRACK 66 AUDIO
    TITLE "2:cjc105_0681"
    INDEX 01 03:47:66
  TRACK 67 AUDIO
    TITLE "2:cjc105_0682"
    INDEX 01 03:52:01
  TRACK 68 AUDIO
    TITLE "2:cjc105_0683"
    INDEX 01 03:55:13
  TRACK 69 AUDIO
    TITLE "2:cjc105_0684"
    INDEX 01 03:58:13
  TRACK 70 AUDIO
    TITLE "2:cjc105_0685"
    INDEX 01 04:01:57
  TRACK 71 AUDIO
    TITLE "2:cjc105_0686"
    INDEX 01 04:04:59
  TRACK 72 AUDIO
    TITLE "2:cjc105_0687"
    INDEX 01 04:07:50
  TRACK 73 AUDIO
    TITLE "2:cjc105_0688"
    INDEX 01 04:11:08
  TRACK 74 AUDIO
    TITLE "2:cjc105_0689"
    INDEX 01 04:14:40
  TRACK 75 AUDIO
    TITLE "2:cjc105_0690"
    INDEX 01 04:18:28
  TRACK 76 AUDIO
    TITLE "2:cjc105_0691"
    INDEX 01 04:21:48
  TRACK 77 AUDIO
    TITLE "2:cjc105_0692"
    INDEX 01 04:24:70
  TRACK 78 AUDIO
    TITLE "0:"
    INDEX 01 04:28:18
